<svg width="16" height="17" viewBox="0 0 16 17" fill="none" xmlns="http://www.w3.org/2000/svg">
<path fill-rule="evenodd" clip-rule="evenodd" d="M11.6191 8.05667L13.2877 4.90133C13.3697 4.746 13.3644 4.55933 13.2737 4.40933C13.1837 4.25933 13.0211 4.16733 12.8457 4.16733H8.45706V3.26C8.45706 2.984 8.23306 2.76 7.95706 2.76H3.65437V2.5C3.65437 2.224 3.43037 2 3.15437 2C2.87837 2 2.65437 2.224 2.65437 2.5V14.5C2.65437 14.776 2.87837 15 3.15437 15C3.43037 15 3.65437 14.776 3.65437 14.5V10.578L7.45839 10.484V11.498C7.45839 11.6327 7.51306 11.762 7.60906 11.856C7.70506 11.95 7.81039 11.998 7.97039 11.998L12.8577 11.8787C13.0317 11.8747 13.1904 11.78 13.2777 11.6293C13.3651 11.4793 13.3684 11.294 13.2857 11.1413L11.6191 8.05667Z" fill="#C80B0B"/>
</svg>
